<svg width="58" height="58" viewBox="0 0 58 58" fill="none" xmlns="http://www.w3.org/2000/svg">
<path d="M58 11.0164C55.8431 11.9625 53.5449 12.5896 51.1488 12.8941C53.6138 11.4224 55.4951 9.10962 56.3797 6.322C54.0813 7.69224 51.5439 8.66012 48.8397 9.20026C46.6573 6.87662 43.5471 5.4375 40.1541 5.4375C33.5711 5.4375 28.2713 10.7808 28.2713 17.3311C28.2713 18.2736 28.3511 19.1799 28.5469 20.0426C18.6615 19.5605 9.91438 14.8226 4.03824 7.60526C3.01238 9.38512 2.41062 11.4224 2.41062 13.6155C2.41062 17.7335 4.53124 21.3839 7.69224 23.4972C5.78188 23.461 3.90774 22.9064 2.32 22.0328C2.32 22.069 2.32 22.1161 2.32 22.1632C2.32 27.9414 6.44162 32.741 11.8465 33.8467C10.8786 34.1112 9.82376 34.2381 8.729 34.2381C7.96776 34.2381 7.19924 34.1947 6.47788 34.0351C8.0185 38.744 12.3903 42.2059 17.5885 42.3182C13.543 45.4829 8.40638 47.3897 2.84562 47.3897C1.8705 47.3897 0.93525 47.3461 0 47.2266C5.26712 50.6231 11.5094 52.5624 18.241 52.5624C40.1214 52.5624 52.084 34.4376 52.084 18.7267C52.084 18.2011 52.0659 17.6936 52.0404 17.1898C54.4003 15.515 56.3832 13.4234 58 11.0164Z" fill="url(#paint0_linear)"/>
<defs>
<linearGradient id="paint0_linear" x1="0" y1="28.9999" x2="58" y2="28.9999" gradientUnits="userSpaceOnUse">
<stop stop-color="#2DA04F"/>
<stop offset="1" stop-color="#10306C"/>
</linearGradient>
</defs>
</svg>
