<svg width="58" height="58" viewBox="0 0 58 58" fill="none" xmlns="http://www.w3.org/2000/svg">
<g clip-path="url(#clip0)">
<path d="M56.9977 15.2897C56.2877 12.2052 53.7647 9.92947 50.7274 9.59C43.5352 8.78713 36.2554 8.78294 29.0092 8.78713C21.7618 8.78294 14.481 8.78713 7.28869 9.59C4.25323 9.92947 1.73207 12.2052 1.022 15.2897C0.0113756 19.6825 0 24.4775 0 29.0002C0 33.5229 0 38.3174 1.01062 42.7095C1.71949 45.7934 4.24126 48.0691 7.27851 48.4092C14.4702 49.2126 21.7504 49.2169 28.9979 49.2126C36.2466 49.2169 43.5249 49.2126 50.7161 48.4092C53.7516 48.0698 56.275 45.794 56.9852 42.7095C57.9964 38.3167 58 33.5223 58 29.0002C58 24.4775 58.0084 19.6825 56.9977 15.2897ZM21.5152 38.0025C21.5152 31.5866 21.5152 25.2379 21.5152 18.8215C27.6621 22.0288 33.7685 25.2145 39.9543 28.4415C33.7876 31.6399 27.6782 34.8064 21.5152 38.0025Z" fill="url(#paint0_linear)"/>
</g>
<defs>
<linearGradient id="paint0_linear" x1="0" y1="28.9999" x2="58" y2="28.9999" gradientUnits="userSpaceOnUse">
<stop stop-color="#2DA04F"/>
<stop offset="1" stop-color="#10306C"/>
</linearGradient>
<clipPath id="clip0">
<rect width="58" height="58" fill="white"/>
</clipPath>
</defs>
</svg>
